<mxfile host="Electron" agent="Mozilla/5.0 (X11; Linux x86_64) AppleWebKit/537.36 (KHTML, like Gecko) draw.io/26.0.9 Chrome/128.0.6613.186 Electron/32.2.5 Safari/537.36" version="26.0.9">
  <diagram name="Page-1" id="jGc9hyPKfOM49vQ5cO8Z">
    <mxGraphModel dx="702" dy="838" grid="1" gridSize="10" guides="1" tooltips="1" connect="1" arrows="1" fold="1" page="1" pageScale="1" pageWidth="827" pageHeight="1169" math="0" shadow="0">
      <root>
        <mxCell id="0" />
        <mxCell id="1" parent="0" />
        <mxCell id="lE053yTTEMvZ7GaWNHRF-1" value="" style="pointerEvents=1;verticalLabelPosition=bottom;shadow=0;dashed=0;align=center;html=1;verticalAlign=top;shape=mxgraph.electrical.resistors.resistor_1;rotation=-90;strokeWidth=2;" vertex="1" parent="1">
          <mxGeometry x="110" y="240" width="100" height="20" as="geometry" />
        </mxCell>
        <mxCell id="lE053yTTEMvZ7GaWNHRF-2" value="" style="verticalLabelPosition=bottom;shadow=0;dashed=0;align=center;html=1;verticalAlign=top;shape=mxgraph.electrical.transistors.nmos;pointerEvents=1;strokeWidth=2;" vertex="1" parent="1">
          <mxGeometry x="100" y="300" width="60" height="100" as="geometry" />
        </mxCell>
        <mxCell id="lE053yTTEMvZ7GaWNHRF-3" style="edgeStyle=orthogonalEdgeStyle;rounded=0;orthogonalLoop=1;jettySize=auto;html=1;exitX=0;exitY=0.5;exitDx=0;exitDy=0;exitPerimeter=0;entryX=1;entryY=0;entryDx=0;entryDy=0;entryPerimeter=0;endArrow=none;startFill=0;strokeWidth=2;" edge="1" parent="1" source="lE053yTTEMvZ7GaWNHRF-1" target="lE053yTTEMvZ7GaWNHRF-2">
          <mxGeometry relative="1" as="geometry" />
        </mxCell>
        <mxCell id="lE053yTTEMvZ7GaWNHRF-4" value="R&lt;span style=&quot;font-size: 10px;&quot;&gt;&lt;sub&gt;Open_Drain&lt;/sub&gt;&lt;/span&gt;" style="text;html=1;align=center;verticalAlign=middle;whiteSpace=wrap;rounded=0;strokeWidth=2;" vertex="1" parent="1">
          <mxGeometry x="90" y="240" width="60" height="30" as="geometry" />
        </mxCell>
        <mxCell id="lE053yTTEMvZ7GaWNHRF-9" value="" style="pointerEvents=1;verticalLabelPosition=bottom;shadow=0;dashed=0;align=center;html=1;verticalAlign=top;shape=mxgraph.electrical.resistors.resistor_1;rotation=-90;strokeWidth=2;" vertex="1" parent="1">
          <mxGeometry x="350" y="340" width="100" height="20" as="geometry" />
        </mxCell>
        <mxCell id="lE053yTTEMvZ7GaWNHRF-10" value="" style="verticalLabelPosition=bottom;shadow=0;dashed=0;align=center;html=1;verticalAlign=top;shape=mxgraph.electrical.transistors.nmos;pointerEvents=1;strokeWidth=2;" vertex="1" parent="1">
          <mxGeometry x="340" y="200" width="60" height="100" as="geometry" />
        </mxCell>
        <mxCell id="lE053yTTEMvZ7GaWNHRF-12" value="R&lt;span style=&quot;font-size: 10px;&quot;&gt;&lt;sub&gt;Open_Source&lt;/sub&gt;&lt;/span&gt;" style="text;html=1;align=center;verticalAlign=middle;whiteSpace=wrap;rounded=0;strokeWidth=2;" vertex="1" parent="1">
          <mxGeometry x="320" y="330" width="60" height="30" as="geometry" />
        </mxCell>
        <mxCell id="lE053yTTEMvZ7GaWNHRF-13" style="edgeStyle=orthogonalEdgeStyle;rounded=0;orthogonalLoop=1;jettySize=auto;html=1;exitX=1;exitY=0.5;exitDx=0;exitDy=0;exitPerimeter=0;entryX=1;entryY=1;entryDx=0;entryDy=0;entryPerimeter=0;endArrow=none;startFill=0;strokeWidth=2;" edge="1" parent="1" source="lE053yTTEMvZ7GaWNHRF-9" target="lE053yTTEMvZ7GaWNHRF-10">
          <mxGeometry relative="1" as="geometry" />
        </mxCell>
        <mxCell id="lE053yTTEMvZ7GaWNHRF-22" style="edgeStyle=orthogonalEdgeStyle;rounded=0;orthogonalLoop=1;jettySize=auto;html=1;exitX=1;exitY=0;exitDx=0;exitDy=0;exitPerimeter=0;endArrow=none;startFill=0;strokeWidth=2;" edge="1" parent="1" source="lE053yTTEMvZ7GaWNHRF-15">
          <mxGeometry relative="1" as="geometry">
            <mxPoint x="719" y="200" as="targetPoint" />
          </mxGeometry>
        </mxCell>
        <mxCell id="lE053yTTEMvZ7GaWNHRF-23" style="edgeStyle=orthogonalEdgeStyle;rounded=0;orthogonalLoop=1;jettySize=auto;html=1;exitX=1;exitY=1;exitDx=0;exitDy=0;exitPerimeter=0;endArrow=none;startFill=0;strokeWidth=2;" edge="1" parent="1" source="lE053yTTEMvZ7GaWNHRF-15">
          <mxGeometry relative="1" as="geometry">
            <mxPoint x="719" y="400" as="targetPoint" />
          </mxGeometry>
        </mxCell>
        <mxCell id="lE053yTTEMvZ7GaWNHRF-15" value="" style="verticalLabelPosition=bottom;shadow=0;dashed=0;align=center;html=1;verticalAlign=top;shape=mxgraph.electrical.transistors.nmos;pointerEvents=1;strokeWidth=2;" vertex="1" parent="1">
          <mxGeometry x="659" y="250" width="60" height="100" as="geometry" />
        </mxCell>
        <mxCell id="lE053yTTEMvZ7GaWNHRF-24" style="edgeStyle=orthogonalEdgeStyle;rounded=0;orthogonalLoop=1;jettySize=auto;html=1;exitX=1;exitY=0.5;exitDx=0;exitDy=0;exitPerimeter=0;endArrow=oval;endFill=1;strokeWidth=2;" edge="1" parent="1" source="lE053yTTEMvZ7GaWNHRF-18">
          <mxGeometry relative="1" as="geometry">
            <mxPoint x="719" y="220" as="targetPoint" />
            <mxPoint x="599" y="195" as="sourcePoint" />
            <Array as="points">
              <mxPoint x="599" y="220" />
              <mxPoint x="719" y="220" />
            </Array>
          </mxGeometry>
        </mxCell>
        <mxCell id="lE053yTTEMvZ7GaWNHRF-18" value="" style="pointerEvents=1;verticalLabelPosition=bottom;shadow=0;dashed=0;align=center;html=1;verticalAlign=top;shape=mxgraph.electrical.resistors.resistor_1;rotation=-90;strokeWidth=2;" vertex="1" parent="1">
          <mxGeometry x="569" y="250" width="60" height="10" as="geometry" />
        </mxCell>
        <mxCell id="lE053yTTEMvZ7GaWNHRF-25" style="edgeStyle=orthogonalEdgeStyle;rounded=0;orthogonalLoop=1;jettySize=auto;html=1;exitX=0;exitY=0.5;exitDx=0;exitDy=0;exitPerimeter=0;endArrow=oval;endFill=1;strokeWidth=2;" edge="1" parent="1" source="lE053yTTEMvZ7GaWNHRF-19">
          <mxGeometry relative="1" as="geometry">
            <mxPoint x="719" y="380" as="targetPoint" />
            <Array as="points">
              <mxPoint x="599" y="380" />
              <mxPoint x="719" y="380" />
            </Array>
          </mxGeometry>
        </mxCell>
        <mxCell id="lE053yTTEMvZ7GaWNHRF-19" value="" style="pointerEvents=1;verticalLabelPosition=bottom;shadow=0;dashed=0;align=center;html=1;verticalAlign=top;shape=mxgraph.electrical.resistors.resistor_1;rotation=-90;strokeWidth=2;" vertex="1" parent="1">
          <mxGeometry x="569" y="340" width="60" height="10" as="geometry" />
        </mxCell>
        <mxCell id="lE053yTTEMvZ7GaWNHRF-29" style="edgeStyle=orthogonalEdgeStyle;rounded=0;orthogonalLoop=1;jettySize=auto;html=1;exitX=1;exitY=0.5;exitDx=0;exitDy=0;exitPerimeter=0;endArrow=oval;endFill=1;strokeWidth=2;" edge="1" parent="1" source="lE053yTTEMvZ7GaWNHRF-20">
          <mxGeometry relative="1" as="geometry">
            <mxPoint x="599" y="300" as="targetPoint" />
          </mxGeometry>
        </mxCell>
        <mxCell id="lE053yTTEMvZ7GaWNHRF-20" value="" style="pointerEvents=1;verticalLabelPosition=bottom;shadow=0;dashed=0;align=center;html=1;verticalAlign=top;shape=mxgraph.electrical.resistors.resistor_1;rotation=-180;strokeWidth=2;" vertex="1" parent="1">
          <mxGeometry x="609" y="295" width="60" height="10" as="geometry" />
        </mxCell>
        <mxCell id="lE053yTTEMvZ7GaWNHRF-26" style="edgeStyle=orthogonalEdgeStyle;rounded=0;orthogonalLoop=1;jettySize=auto;html=1;exitX=1;exitY=0.5;exitDx=0;exitDy=0;exitPerimeter=0;endArrow=none;startFill=0;strokeWidth=2;" edge="1" parent="1" source="lE053yTTEMvZ7GaWNHRF-21">
          <mxGeometry relative="1" as="geometry">
            <mxPoint x="509" y="300" as="targetPoint" />
          </mxGeometry>
        </mxCell>
        <mxCell id="lE053yTTEMvZ7GaWNHRF-21" value="" style="pointerEvents=1;verticalLabelPosition=bottom;shadow=0;dashed=0;align=center;html=1;verticalAlign=top;shape=mxgraph.electrical.resistors.resistor_1;rotation=-180;strokeWidth=2;" vertex="1" parent="1">
          <mxGeometry x="529" y="295" width="60" height="10" as="geometry" />
        </mxCell>
        <mxCell id="lE053yTTEMvZ7GaWNHRF-27" style="edgeStyle=orthogonalEdgeStyle;rounded=0;orthogonalLoop=1;jettySize=auto;html=1;exitX=1;exitY=0.5;exitDx=0;exitDy=0;exitPerimeter=0;entryX=0;entryY=0.5;entryDx=0;entryDy=0;entryPerimeter=0;endArrow=none;startFill=0;strokeWidth=2;" edge="1" parent="1" source="lE053yTTEMvZ7GaWNHRF-19" target="lE053yTTEMvZ7GaWNHRF-18">
          <mxGeometry relative="1" as="geometry" />
        </mxCell>
        <mxCell id="lE053yTTEMvZ7GaWNHRF-28" style="edgeStyle=orthogonalEdgeStyle;rounded=0;orthogonalLoop=1;jettySize=auto;html=1;exitX=1;exitY=0.5;exitDx=0;exitDy=0;exitPerimeter=0;entryX=0;entryY=0.5;entryDx=0;entryDy=0;entryPerimeter=0;endArrow=none;startFill=0;strokeWidth=2;" edge="1" parent="1" source="lE053yTTEMvZ7GaWNHRF-20" target="lE053yTTEMvZ7GaWNHRF-21">
          <mxGeometry relative="1" as="geometry" />
        </mxCell>
        <mxCell id="lE053yTTEMvZ7GaWNHRF-39" style="edgeStyle=orthogonalEdgeStyle;rounded=0;orthogonalLoop=1;jettySize=auto;html=1;exitX=1;exitY=0.5;exitDx=0;exitDy=0;exitPerimeter=0;endArrow=oval;endFill=1;strokeWidth=2;" edge="1" parent="1" source="lE053yTTEMvZ7GaWNHRF-30">
          <mxGeometry relative="1" as="geometry">
            <mxPoint x="160" y="497.86" as="targetPoint" />
            <Array as="points">
              <mxPoint x="200" y="497.86" />
            </Array>
          </mxGeometry>
        </mxCell>
        <mxCell id="lE053yTTEMvZ7GaWNHRF-41" style="edgeStyle=orthogonalEdgeStyle;rounded=0;orthogonalLoop=1;jettySize=auto;html=1;exitX=0;exitY=0.5;exitDx=0;exitDy=0;exitPerimeter=0;endArrow=oval;endFill=1;strokeWidth=2;" edge="1" parent="1" source="lE053yTTEMvZ7GaWNHRF-30">
          <mxGeometry relative="1" as="geometry">
            <mxPoint x="160" y="637.86" as="targetPoint" />
            <Array as="points">
              <mxPoint x="200" y="637.86" />
              <mxPoint x="160" y="637.86" />
            </Array>
          </mxGeometry>
        </mxCell>
        <mxCell id="lE053yTTEMvZ7GaWNHRF-30" value="" style="pointerEvents=1;verticalLabelPosition=bottom;shadow=0;dashed=0;align=center;html=1;verticalAlign=top;shape=mxgraph.electrical.resistors.resistor_1;rotation=-90;strokeWidth=2;" vertex="1" parent="1">
          <mxGeometry x="150" y="557.86" width="100" height="20" as="geometry" />
        </mxCell>
        <mxCell id="lE053yTTEMvZ7GaWNHRF-37" style="edgeStyle=orthogonalEdgeStyle;rounded=0;orthogonalLoop=1;jettySize=auto;html=1;exitX=1;exitY=0;exitDx=0;exitDy=0;exitPerimeter=0;endArrow=none;startFill=0;strokeWidth=2;" edge="1" parent="1" source="lE053yTTEMvZ7GaWNHRF-31">
          <mxGeometry relative="1" as="geometry">
            <mxPoint x="160" y="477.86" as="targetPoint" />
          </mxGeometry>
        </mxCell>
        <mxCell id="lE053yTTEMvZ7GaWNHRF-38" style="edgeStyle=orthogonalEdgeStyle;rounded=0;orthogonalLoop=1;jettySize=auto;html=1;exitX=1;exitY=1;exitDx=0;exitDy=0;exitPerimeter=0;endArrow=none;startFill=0;strokeWidth=2;" edge="1" parent="1" source="lE053yTTEMvZ7GaWNHRF-31">
          <mxGeometry relative="1" as="geometry">
            <mxPoint x="160" y="657.86" as="targetPoint" />
            <Array as="points">
              <mxPoint x="160" y="597.86" />
              <mxPoint x="160" y="597.86" />
            </Array>
          </mxGeometry>
        </mxCell>
        <mxCell id="lE053yTTEMvZ7GaWNHRF-31" value="" style="verticalLabelPosition=bottom;shadow=0;dashed=0;align=center;html=1;verticalAlign=top;shape=mxgraph.electrical.transistors.nmos;pointerEvents=1;strokeWidth=2;" vertex="1" parent="1">
          <mxGeometry x="100" y="517.86" width="60" height="100" as="geometry" />
        </mxCell>
        <mxCell id="lE053yTTEMvZ7GaWNHRF-33" value="R&lt;span style=&quot;vertical-align: sub; background-color: transparent; color: light-dark(rgb(0, 0, 0), rgb(255, 255, 255));&quot;&gt;&lt;font style=&quot;font-size: 8.3333px;&quot;&gt;Short_Drain_Source&lt;/font&gt;&lt;/span&gt;" style="text;html=1;align=center;verticalAlign=middle;whiteSpace=wrap;rounded=0;strokeWidth=2;" vertex="1" parent="1">
          <mxGeometry x="220" y="510" width="60" height="30" as="geometry" />
        </mxCell>
        <mxCell id="lE053yTTEMvZ7GaWNHRF-42" style="edgeStyle=orthogonalEdgeStyle;rounded=0;orthogonalLoop=1;jettySize=auto;html=1;exitX=1;exitY=0.5;exitDx=0;exitDy=0;exitPerimeter=0;endArrow=oval;endFill=1;strokeWidth=2;" edge="1" parent="1" source="lE053yTTEMvZ7GaWNHRF-44">
          <mxGeometry relative="1" as="geometry">
            <mxPoint x="480" y="510" as="targetPoint" />
            <Array as="points">
              <mxPoint x="414" y="510" />
              <mxPoint x="480" y="510" />
            </Array>
          </mxGeometry>
        </mxCell>
        <mxCell id="lE053yTTEMvZ7GaWNHRF-52" style="edgeStyle=orthogonalEdgeStyle;rounded=0;orthogonalLoop=1;jettySize=auto;html=1;exitX=0;exitY=0.5;exitDx=0;exitDy=0;exitPerimeter=0;endArrow=oval;endFill=1;strokeWidth=2;" edge="1" parent="1" source="lE053yTTEMvZ7GaWNHRF-44">
          <mxGeometry relative="1" as="geometry">
            <mxPoint x="414" y="620" as="targetPoint" />
          </mxGeometry>
        </mxCell>
        <mxCell id="lE053yTTEMvZ7GaWNHRF-44" value="" style="pointerEvents=1;verticalLabelPosition=bottom;shadow=0;dashed=0;align=center;html=1;verticalAlign=top;shape=mxgraph.electrical.resistors.resistor_1;rotation=-90;strokeWidth=2;" vertex="1" parent="1">
          <mxGeometry x="370" y="552.86" width="87" height="20" as="geometry" />
        </mxCell>
        <mxCell id="lE053yTTEMvZ7GaWNHRF-45" style="edgeStyle=orthogonalEdgeStyle;rounded=0;orthogonalLoop=1;jettySize=auto;html=1;exitX=1;exitY=0;exitDx=0;exitDy=0;exitPerimeter=0;endArrow=none;startFill=0;strokeWidth=2;" edge="1" parent="1" source="lE053yTTEMvZ7GaWNHRF-47">
          <mxGeometry relative="1" as="geometry">
            <mxPoint x="480" y="480" as="targetPoint" />
            <Array as="points">
              <mxPoint x="480" y="540" />
              <mxPoint x="480" y="540" />
            </Array>
          </mxGeometry>
        </mxCell>
        <mxCell id="lE053yTTEMvZ7GaWNHRF-46" style="edgeStyle=orthogonalEdgeStyle;rounded=0;orthogonalLoop=1;jettySize=auto;html=1;exitX=1;exitY=1;exitDx=0;exitDy=0;exitPerimeter=0;endArrow=none;startFill=0;strokeWidth=2;" edge="1" parent="1" source="lE053yTTEMvZ7GaWNHRF-47">
          <mxGeometry relative="1" as="geometry">
            <mxPoint x="480" y="680" as="targetPoint" />
            <Array as="points">
              <mxPoint x="480" y="650" />
              <mxPoint x="480" y="650" />
            </Array>
          </mxGeometry>
        </mxCell>
        <mxCell id="lE053yTTEMvZ7GaWNHRF-51" style="edgeStyle=orthogonalEdgeStyle;rounded=0;orthogonalLoop=1;jettySize=auto;html=1;exitX=0;exitY=0.5;exitDx=0;exitDy=0;exitPerimeter=0;endArrow=none;startFill=0;strokeWidth=2;" edge="1" parent="1" source="lE053yTTEMvZ7GaWNHRF-47">
          <mxGeometry relative="1" as="geometry">
            <mxPoint x="380" y="620" as="targetPoint" />
          </mxGeometry>
        </mxCell>
        <mxCell id="lE053yTTEMvZ7GaWNHRF-47" value="" style="verticalLabelPosition=bottom;shadow=0;dashed=0;align=center;html=1;verticalAlign=top;shape=mxgraph.electrical.transistors.nmos;pointerEvents=1;strokeWidth=2;" vertex="1" parent="1">
          <mxGeometry x="420" y="570" width="60" height="100" as="geometry" />
        </mxCell>
        <mxCell id="lE053yTTEMvZ7GaWNHRF-48" value="R&lt;span style=&quot;vertical-align: sub; background-color: transparent; color: light-dark(rgb(0, 0, 0), rgb(255, 255, 255));&quot;&gt;&lt;font style=&quot;font-size: 8.3333px;&quot;&gt;Short_Drain_Gate&lt;/font&gt;&lt;/span&gt;" style="text;html=1;align=center;verticalAlign=middle;whiteSpace=wrap;rounded=0;strokeWidth=2;" vertex="1" parent="1">
          <mxGeometry x="330" y="547.86" width="60" height="30" as="geometry" />
        </mxCell>
        <mxCell id="lE053yTTEMvZ7GaWNHRF-53" style="edgeStyle=orthogonalEdgeStyle;rounded=0;orthogonalLoop=1;jettySize=auto;html=1;exitX=1;exitY=0.5;exitDx=0;exitDy=0;exitPerimeter=0;endArrow=oval;endFill=1;strokeWidth=2;" edge="1" parent="1" source="lE053yTTEMvZ7GaWNHRF-55">
          <mxGeometry relative="1" as="geometry">
            <mxPoint x="720" y="650" as="targetPoint" />
            <Array as="points">
              <mxPoint x="654" y="650" />
              <mxPoint x="720" y="650" />
            </Array>
          </mxGeometry>
        </mxCell>
        <mxCell id="lE053yTTEMvZ7GaWNHRF-54" style="edgeStyle=orthogonalEdgeStyle;rounded=0;orthogonalLoop=1;jettySize=auto;html=1;exitX=0;exitY=0.5;exitDx=0;exitDy=0;exitPerimeter=0;endArrow=oval;endFill=1;strokeWidth=2;" edge="1" parent="1" source="lE053yTTEMvZ7GaWNHRF-55">
          <mxGeometry relative="1" as="geometry">
            <mxPoint x="654" y="540" as="targetPoint" />
          </mxGeometry>
        </mxCell>
        <mxCell id="lE053yTTEMvZ7GaWNHRF-55" value="" style="pointerEvents=1;verticalLabelPosition=bottom;shadow=0;dashed=0;align=center;html=1;verticalAlign=top;shape=mxgraph.electrical.resistors.resistor_1;rotation=90;strokeWidth=2;" vertex="1" parent="1">
          <mxGeometry x="610" y="590" width="87" height="20" as="geometry" />
        </mxCell>
        <mxCell id="lE053yTTEMvZ7GaWNHRF-56" style="edgeStyle=orthogonalEdgeStyle;rounded=0;orthogonalLoop=1;jettySize=auto;html=1;exitX=1;exitY=0;exitDx=0;exitDy=0;exitPerimeter=0;endArrow=none;startFill=0;entryX=1;entryY=0;entryDx=0;entryDy=0;entryPerimeter=0;strokeWidth=2;" edge="1" parent="1" source="lE053yTTEMvZ7GaWNHRF-59" target="lE053yTTEMvZ7GaWNHRF-59">
          <mxGeometry relative="1" as="geometry">
            <mxPoint x="720" y="480" as="targetPoint" />
            <Array as="points" />
          </mxGeometry>
        </mxCell>
        <mxCell id="lE053yTTEMvZ7GaWNHRF-57" style="edgeStyle=orthogonalEdgeStyle;rounded=0;orthogonalLoop=1;jettySize=auto;html=1;exitX=1;exitY=1;exitDx=0;exitDy=0;exitPerimeter=0;endArrow=none;startFill=0;strokeWidth=2;" edge="1" parent="1" source="lE053yTTEMvZ7GaWNHRF-59">
          <mxGeometry relative="1" as="geometry">
            <mxPoint x="720" y="670" as="targetPoint" />
            <Array as="points">
              <mxPoint x="720" y="650" />
              <mxPoint x="720" y="650" />
            </Array>
          </mxGeometry>
        </mxCell>
        <mxCell id="lE053yTTEMvZ7GaWNHRF-58" style="edgeStyle=orthogonalEdgeStyle;rounded=0;orthogonalLoop=1;jettySize=auto;html=1;exitX=0;exitY=0.5;exitDx=0;exitDy=0;exitPerimeter=0;endArrow=none;startFill=0;strokeWidth=2;" edge="1" parent="1" source="lE053yTTEMvZ7GaWNHRF-59">
          <mxGeometry relative="1" as="geometry">
            <mxPoint x="620" y="540" as="targetPoint" />
          </mxGeometry>
        </mxCell>
        <mxCell id="lE053yTTEMvZ7GaWNHRF-61" style="edgeStyle=orthogonalEdgeStyle;rounded=0;orthogonalLoop=1;jettySize=auto;html=1;exitX=1;exitY=0;exitDx=0;exitDy=0;exitPerimeter=0;endArrow=none;startFill=0;strokeWidth=2;" edge="1" parent="1" source="lE053yTTEMvZ7GaWNHRF-59">
          <mxGeometry relative="1" as="geometry">
            <mxPoint x="720" y="480" as="targetPoint" />
          </mxGeometry>
        </mxCell>
        <mxCell id="lE053yTTEMvZ7GaWNHRF-59" value="" style="verticalLabelPosition=bottom;shadow=0;dashed=0;align=center;html=1;verticalAlign=top;shape=mxgraph.electrical.transistors.nmos;pointerEvents=1;strokeWidth=2;" vertex="1" parent="1">
          <mxGeometry x="660" y="490" width="60" height="100" as="geometry" />
        </mxCell>
        <mxCell id="lE053yTTEMvZ7GaWNHRF-60" value="R&lt;span style=&quot;vertical-align: sub; background-color: transparent; color: light-dark(rgb(0, 0, 0), rgb(255, 255, 255));&quot;&gt;&lt;font style=&quot;font-size: 8.3333px;&quot;&gt;Short_Source_Gate&lt;/font&gt;&lt;/span&gt;" style="text;html=1;align=center;verticalAlign=middle;whiteSpace=wrap;rounded=0;strokeWidth=2;" vertex="1" parent="1">
          <mxGeometry x="570" y="580" width="60" height="30" as="geometry" />
        </mxCell>
        <mxCell id="lE053yTTEMvZ7GaWNHRF-62" value="&lt;b&gt;&lt;font style=&quot;font-size: 14px;&quot;&gt;1) Open at Drain&lt;/font&gt;&lt;/b&gt;" style="text;html=1;align=center;verticalAlign=middle;whiteSpace=wrap;rounded=0;strokeWidth=2;" vertex="1" parent="1">
          <mxGeometry x="90" y="170" width="130" height="30" as="geometry" />
        </mxCell>
        <mxCell id="lE053yTTEMvZ7GaWNHRF-63" value="&lt;b&gt;&lt;font style=&quot;font-size: 14px;&quot;&gt;2) Open at Source&lt;/font&gt;&lt;/b&gt;" style="text;html=1;align=center;verticalAlign=middle;whiteSpace=wrap;rounded=0;strokeWidth=2;" vertex="1" parent="1">
          <mxGeometry x="335" y="170" width="130" height="30" as="geometry" />
        </mxCell>
        <mxCell id="lE053yTTEMvZ7GaWNHRF-64" value="&lt;b&gt;&lt;font style=&quot;font-size: 14px;&quot;&gt;3&lt;/font&gt;&lt;/b&gt;&lt;b style=&quot;background-color: transparent; color: light-dark(rgb(0, 0, 0), rgb(255, 255, 255));&quot;&gt;&lt;font style=&quot;font-size: 14px;&quot;&gt;) Open at Gate&lt;/font&gt;&lt;/b&gt;" style="text;html=1;align=center;verticalAlign=middle;whiteSpace=wrap;rounded=0;strokeWidth=2;" vertex="1" parent="1">
          <mxGeometry x="590" y="170" width="130" height="30" as="geometry" />
        </mxCell>
        <mxCell id="lE053yTTEMvZ7GaWNHRF-65" value="&lt;b&gt;&lt;font style=&quot;font-size: 14px;&quot;&gt;4) Short between Drain and Source&lt;/font&gt;&lt;/b&gt;" style="text;html=1;align=center;verticalAlign=middle;whiteSpace=wrap;rounded=0;strokeWidth=2;" vertex="1" parent="1">
          <mxGeometry x="95" y="440" width="130" height="30" as="geometry" />
        </mxCell>
        <mxCell id="lE053yTTEMvZ7GaWNHRF-67" value="&lt;b&gt;&lt;font style=&quot;font-size: 14px;&quot;&gt;5) Short between Drain and Gate&lt;/font&gt;&lt;/b&gt;" style="text;html=1;align=center;verticalAlign=middle;whiteSpace=wrap;rounded=0;strokeWidth=2;" vertex="1" parent="1">
          <mxGeometry x="350" y="440" width="130" height="30" as="geometry" />
        </mxCell>
        <mxCell id="lE053yTTEMvZ7GaWNHRF-68" value="&lt;b&gt;&lt;font style=&quot;font-size: 14px;&quot;&gt;6) Short between Source and Gate&lt;/font&gt;&lt;/b&gt;" style="text;html=1;align=center;verticalAlign=middle;whiteSpace=wrap;rounded=0;strokeWidth=2;" vertex="1" parent="1">
          <mxGeometry x="590" y="440" width="130" height="30" as="geometry" />
        </mxCell>
        <mxCell id="lE053yTTEMvZ7GaWNHRF-69" value="R&lt;sub&gt;&lt;font style=&quot;font-size: 9px;&quot;&gt;Open_Gate&lt;/font&gt;&lt;/sub&gt;" style="text;html=1;align=center;verticalAlign=middle;whiteSpace=wrap;rounded=0;strokeWidth=2;" vertex="1" parent="1">
          <mxGeometry x="520" y="310" width="60" height="30" as="geometry" />
        </mxCell>
        <mxCell id="lE053yTTEMvZ7GaWNHRF-70" value="0.1R&lt;sub&gt;&lt;font style=&quot;font-size: 9px;&quot;&gt;Open_Gate&lt;/font&gt;&lt;/sub&gt;" style="text;html=1;align=center;verticalAlign=middle;whiteSpace=wrap;rounded=0;strokeWidth=2;" vertex="1" parent="1">
          <mxGeometry x="620" y="300" width="60" height="30" as="geometry" />
        </mxCell>
        <mxCell id="lE053yTTEMvZ7GaWNHRF-73" value="0.05&lt;span style=&quot;background-color: transparent; color: light-dark(rgb(0, 0, 0), rgb(255, 255, 255));&quot;&gt;R&lt;/span&gt;&lt;sub style=&quot;background-color: transparent; color: light-dark(rgb(0, 0, 0), rgb(255, 255, 255));&quot;&gt;&lt;font style=&quot;font-size: 9px;&quot;&gt;Open_Gate&lt;/font&gt;&lt;/sub&gt;" style="text;html=1;align=center;verticalAlign=middle;whiteSpace=wrap;rounded=0;strokeWidth=2;" vertex="1" parent="1">
          <mxGeometry x="620" y="240" width="60" height="30" as="geometry" />
        </mxCell>
        <mxCell id="lE053yTTEMvZ7GaWNHRF-74" value="0.05&lt;span style=&quot;background-color: transparent; color: light-dark(rgb(0, 0, 0), rgb(255, 255, 255));&quot;&gt;R&lt;/span&gt;&lt;sub style=&quot;background-color: transparent; color: light-dark(rgb(0, 0, 0), rgb(255, 255, 255));&quot;&gt;&lt;font style=&quot;font-size: 9px;&quot;&gt;Open_Gate&lt;/font&gt;&lt;/sub&gt;" style="text;html=1;align=center;verticalAlign=middle;whiteSpace=wrap;rounded=0;strokeWidth=2;" vertex="1" parent="1">
          <mxGeometry x="620" y="330" width="60" height="30" as="geometry" />
        </mxCell>
      </root>
    </mxGraphModel>
  </diagram>
</mxfile>
